<svg width="76" height="84" viewBox="0 0 76 84" fill="none" xmlns="http://www.w3.org/2000/svg">
<path d="M51.5277 29.447L43.5675 27.3212L39.0798 20.4304C38.6943 19.8383 37.7148 19.8383 37.3293 20.4304L32.8416 27.3212L24.8814 29.447C24.5389 29.5382 24.2663 29.797 24.157 30.1347C24.047 30.4716 24.1155 30.8413 24.3392 31.117L29.5243 37.5001L29.0929 45.7021C29.0739 46.0551 29.2357 46.3942 29.5214 46.6028C29.8071 46.8113 30.1802 46.8595 30.5096 46.734L38.2037 43.7879L45.8979 46.7333C46.0188 46.7799 46.1449 46.8026 46.271 46.8026C46.4889 46.8026 46.7046 46.7347 46.8853 46.6027C47.171 46.3942 47.3328 46.0558 47.3138 45.7021L46.8824 37.5001L52.0675 31.117C52.2912 30.842 52.3597 30.4723 52.2504 30.1347C52.1426 29.797 51.8693 29.5381 51.5275 29.447L51.5277 29.447ZM45.0083 36.493C44.8451 36.6943 44.762 36.9488 44.7758 37.2077L45.1438 44.2056L38.5778 41.6918C38.4569 41.6459 38.3308 41.6225 38.204 41.6225C38.0772 41.6225 37.9511 41.6459 37.8309 41.6918L31.2649 44.2056L31.6329 37.2077C31.6467 36.9488 31.5637 36.6943 31.4004 36.493L26.9791 31.0507L33.7675 29.2377C34.0167 29.1706 34.2325 29.0146 34.3738 28.798L38.2041 22.9165L42.0351 28.7987C42.1758 29.0153 42.3915 29.1714 42.6415 29.2385L49.4298 31.0514L45.0083 36.493Z" fill="#333333"/>
<path d="M68.4902 45.8069C68.5267 44.6225 68.5624 43.5039 68.8225 42.5288C69.0893 41.5275 69.6235 40.5249 70.1889 39.463C71.0642 37.8185 71.97 36.1171 71.97 34.2065C71.97 32.296 71.0649 30.5952 70.1889 28.9501C69.6235 27.8883 69.09 26.8849 68.8225 25.8843C68.5624 24.9093 68.5274 23.7913 68.4902 22.6069C68.432 20.7285 68.3715 18.7856 67.3964 17.0989C66.4621 15.4821 64.8457 14.4729 63.2818 13.4963C62.2426 12.8473 61.261 12.2347 60.5024 11.4748C59.743 10.7149 59.1309 9.73264 58.4823 8.69278C57.5065 7.12852 56.4971 5.51102 54.8823 4.57608C53.1959 3.60033 51.2546 3.5398 49.3772 3.48074C48.1937 3.44354 47.0766 3.40854 46.1022 3.1482C45.1016 2.88129 44.0989 2.34675 43.0377 1.78085C41.3936 0.905744 39.6942 0 37.7849 0C35.8756 0 34.1761 0.905743 32.5321 1.78231C31.471 2.3482 30.4684 2.88275 29.4684 3.14966C28.4941 3.41 27.3761 3.445 26.1933 3.48219C24.3162 3.54053 22.3746 3.60179 20.6883 4.57754C19.0726 5.51244 18.0641 7.12996 17.0882 8.69498C16.4396 9.7349 15.8275 10.7172 15.0682 11.4763C14.3088 12.2362 13.3279 12.8488 12.2888 13.4978C10.7256 14.4735 9.10848 15.4836 8.17418 17.1003C7.1991 18.7871 7.13862 20.7305 7.07959 22.6091C7.04315 23.7935 7.00745 24.9121 6.74729 25.8872C6.48057 26.8885 5.94639 27.8912 5.38088 28.953C4.50565 30.5975 3.59981 32.2989 3.59981 34.2095C3.59981 36.1201 4.50492 37.8208 5.38088 39.4659C5.94639 40.5277 6.47984 41.5311 6.74729 42.5317C7.00745 43.5068 7.04243 44.6247 7.07959 45.8091C7.13789 47.6875 7.19838 49.6304 8.17345 51.3179C8.50212 51.8867 8.91824 52.3768 9.38392 52.8202L0.148415 68.2592C-0.0417838 68.5772 -0.0498078 68.9732 0.128007 69.2977C0.305822 69.6229 0.642506 69.8293 1.01344 69.841L16.17 70.2975L22.9744 82.9786C23.1523 83.3097 23.494 83.5204 23.8701 83.5292C23.8781 83.5299 23.8861 83.5299 23.8949 83.5299C24.2614 83.5299 24.6025 83.3374 24.7912 83.0216L34.112 67.4403C35.2714 67.9887 36.4791 68.4168 37.785 68.4168C39.2053 68.4168 40.5092 67.9151 41.7604 67.2974L51.2088 83.0917C51.3975 83.4075 51.7386 83.6 52.1051 83.6C52.1132 83.6 52.1212 83.6 52.1299 83.5993C52.506 83.5905 52.8485 83.3805 53.0256 83.0487L59.83 70.3676L74.9866 69.9111C75.3568 69.9001 75.6935 69.693 75.872 69.3678C76.0498 69.0425 76.0418 68.6473 75.8516 68.3293L66.428 52.5766C66.7939 52.1967 67.1255 51.7847 67.3958 51.3179C68.3709 49.6282 68.4321 47.6855 68.4904 45.8069L68.4902 45.8069ZM23.9451 80.365L17.7267 68.7749C17.5503 68.446 17.2115 68.236 16.8384 68.2243L2.85657 67.8036L11.0427 54.119C11.4529 54.3947 11.872 54.6579 12.2888 54.9183C13.328 55.5673 14.3097 56.1799 15.069 56.9398C15.8283 57.6996 16.4412 58.6819 17.0898 59.7226C18.0656 61.2868 19.0742 62.9036 20.6891 63.8385C22.3754 64.8143 24.3168 64.8748 26.1941 64.9338C27.3776 64.971 28.4948 65.006 29.4692 65.2664C30.3794 65.51 31.2933 65.976 32.2493 66.4835L23.9451 80.365ZM59.1641 68.2951C58.791 68.3061 58.4521 68.5161 58.2757 68.8457L52.0565 80.4358L43.6169 66.3277C44.4666 65.8821 45.2857 65.4839 46.1019 65.2659C47.0762 65.0055 48.1934 64.9705 49.377 64.9333C51.2541 64.875 53.1957 64.8137 54.882 63.838C56.4977 62.9031 57.5062 61.2856 58.4821 59.7205C59.1307 58.6806 59.7428 57.6983 60.5021 56.9392C61.2615 56.1794 62.2424 55.5668 63.2815 54.9178C63.7924 54.5991 64.3069 54.2738 64.8032 53.9282L73.1452 67.8729L59.1641 68.2951ZM66.4013 45.743C66.3481 47.4378 66.2986 49.0385 65.5866 50.2702C64.9132 51.4356 63.5833 52.2661 62.1753 53.1449C61.0822 53.8275 59.9519 54.5334 59.0241 55.4617C58.0964 56.3901 57.391 57.5211 56.7089 58.6151C55.8308 60.024 55.0007 61.3549 53.8362 62.0287C52.6054 62.7412 51.0057 62.7915 49.3121 62.844C48.0623 62.8834 46.771 62.9235 45.5634 63.2458C44.3311 63.5747 43.1745 64.1917 42.0559 64.7882C40.5736 65.5787 39.1729 66.3248 37.7853 66.3248C36.3985 66.3248 34.9979 65.5787 33.5147 64.7882C32.3968 64.1917 31.2396 63.5755 30.0072 63.2458C28.8004 62.9235 27.5082 62.8834 26.2585 62.844C24.5648 62.7915 22.9653 62.7412 21.7336 62.0287C20.5698 61.3556 19.7397 60.0248 18.861 58.6158C18.1789 57.5219 17.4734 56.3909 16.545 55.4617C15.6173 54.5326 14.487 53.8274 13.3938 53.1449C11.9858 52.2661 10.6558 51.4355 9.98253 50.2702C9.27127 49.0385 9.22099 47.4378 9.16851 45.743C9.12916 44.4924 9.08908 43.2001 8.76698 41.9917C8.43759 40.7585 7.82179 39.6004 7.22567 38.4817C6.4357 36.9984 5.68945 35.5968 5.68945 34.2082C5.68945 32.8196 6.43497 31.4189 7.22494 29.9347C7.82106 28.8153 8.43686 27.658 8.76625 26.4247C9.08837 25.2171 9.12844 23.924 9.16778 22.6734C9.22098 20.9786 9.27054 19.378 9.98253 18.1462C10.6559 16.9808 11.9858 16.1503 13.3938 15.2715C14.4869 14.589 15.6172 13.883 16.545 12.9547C17.4727 12.0264 18.1781 10.8953 18.8602 9.80134C19.7383 8.39241 20.5684 7.06148 21.7329 6.38772C22.9637 5.67596 24.5634 5.62565 26.257 5.57241C27.506 5.53303 28.7981 5.49292 30.0057 5.17059C31.238 4.8417 32.3946 4.22475 33.5132 3.62822C34.997 2.83916 36.3969 2.0924 37.7846 2.0924C39.1722 2.0924 40.572 2.83843 42.0544 3.62895C43.173 4.22548 44.3295 4.8417 45.5626 5.17132C46.7695 5.49366 48.0616 5.53376 49.3114 5.57314C51.005 5.62564 52.6046 5.67596 53.8362 6.38845C55.0001 7.06228 55.8302 8.39312 56.7089 9.80207C57.391 10.896 58.0964 12.027 59.0241 12.9554C59.9518 13.8838 61.0821 14.5897 62.1753 15.2723C63.5833 16.151 64.9133 16.9816 65.5866 18.1469C66.2978 19.3786 66.3481 20.9794 66.4006 22.6741C66.4399 23.9248 66.48 25.2178 66.8021 26.4255C67.1315 27.6587 67.7473 28.8168 68.3434 29.9354C69.1334 31.4187 69.8797 32.8203 69.8797 34.2089C69.8797 35.5975 69.1341 36.9983 68.3442 38.4825C67.7481 39.6019 67.1322 40.7591 66.8029 41.9924C66.4807 43.1993 66.4407 44.4924 66.4013 45.743V45.743Z" fill="#333333"/>
<path d="M37.7861 9.24219C31.1216 9.24219 24.8565 11.839 20.1451 16.5544C15.4322 21.2699 12.8379 27.5393 12.8379 34.2076C12.8379 40.8768 15.4329 47.1462 20.1451 51.8608C24.8572 56.5762 31.1223 59.1731 37.7861 59.1731C44.4499 59.1731 50.7149 56.5762 55.4271 51.8608C60.14 47.1454 62.7343 40.876 62.7343 34.2076C62.7343 27.5393 60.1392 21.2691 55.4271 16.5544C50.7149 11.839 44.4499 9.24219 37.7861 9.24219ZM53.9499 50.383C45.0373 59.3032 30.5365 59.3017 21.6227 50.383C17.3047 46.0621 14.9276 40.3186 14.9276 34.208C14.9276 28.0982 17.3055 22.354 21.6227 18.033C26.079 13.5736 31.9331 11.3443 37.7865 11.3443C43.6398 11.3443 49.4931 13.5736 53.9495 18.033C58.2675 22.354 60.6446 28.0982 60.6446 34.208C60.6454 40.3184 58.2675 46.0621 53.9503 50.383H53.9499Z" fill="#333333"/>
</svg>
