<svg width="78" height="86" viewBox="0 0 78 86" fill="none" xmlns="http://www.w3.org/2000/svg">
<path d="M52.5277 30.447L44.5675 28.3212L40.0798 21.4304C39.6943 20.8383 38.7148 20.8383 38.3293 21.4304L33.8416 28.3212L25.8814 30.447C25.5389 30.5382 25.2663 30.797 25.157 31.1347C25.047 31.4716 25.1155 31.8413 25.3392 32.117L30.5243 38.5001L30.0929 46.7021C30.0739 47.0551 30.2357 47.3942 30.5214 47.6028C30.8071 47.8113 31.1802 47.8595 31.5096 47.734L39.2037 44.7879L46.8979 47.7333C47.0188 47.7799 47.1449 47.8026 47.271 47.8026C47.4889 47.8026 47.7046 47.7347 47.8853 47.6027C48.171 47.3942 48.3328 47.0558 48.3138 46.7021L47.8824 38.5001L53.0675 32.117C53.2912 31.842 53.3597 31.4723 53.2504 31.1347C53.1426 30.797 52.8693 30.5381 52.5275 30.447L52.5277 30.447ZM46.0083 37.493C45.8451 37.6943 45.762 37.9488 45.7758 38.2077L46.1438 45.2056L39.5778 42.6918C39.4569 42.6459 39.3308 42.6225 39.204 42.6225C39.0772 42.6225 38.9511 42.6459 38.8309 42.6918L32.2649 45.2056L32.6329 38.2077C32.6467 37.9488 32.5637 37.6943 32.4004 37.493L27.9791 32.0507L34.7675 30.2377C35.0167 30.1706 35.2325 30.0146 35.3738 29.798L39.2041 23.9165L43.0351 29.7987C43.1758 30.0153 43.3915 30.1714 43.6415 30.2385L50.4298 32.0514L46.0083 37.493Z" fill="#0D92D2" stroke="#0D92D2" stroke-width="2"/>
<path d="M69.4902 46.8069C69.5267 45.6225 69.5624 44.5039 69.8225 43.5288C70.0893 42.5275 70.6235 41.5249 71.1889 40.463C72.0642 38.8185 72.97 37.1171 72.97 35.2065C72.97 33.296 72.0649 31.5952 71.1889 29.9501C70.6235 28.8883 70.09 27.8849 69.8225 26.8843C69.5624 25.9093 69.5274 24.7913 69.4902 23.6069C69.432 21.7285 69.3715 19.7856 68.3964 18.0989C67.4621 16.4821 65.8457 15.4729 64.2818 14.4963C63.2426 13.8473 62.261 13.2347 61.5024 12.4748C60.743 11.7149 60.1309 10.7326 59.4823 9.69278C58.5065 8.12852 57.4971 6.51102 55.8823 5.57608C54.1959 4.60033 52.2546 4.5398 50.3772 4.48074C49.1937 4.44354 48.0766 4.40854 47.1022 4.1482C46.1016 3.88129 45.0989 3.34675 44.0377 2.78085C42.3936 1.90574 40.6942 1 38.7849 1C36.8756 1 35.1761 1.90574 33.5321 2.78231C32.471 3.3482 31.4684 3.88275 30.4684 4.14966C29.4941 4.41 28.3761 4.445 27.1933 4.48219C25.3162 4.54053 23.3746 4.60179 21.6883 5.57754C20.0726 6.51244 19.0641 8.12996 18.0882 9.69498C17.4396 10.7349 16.8275 11.7172 16.0682 12.4763C15.3088 13.2362 14.3279 13.8488 13.2888 14.4978C11.7256 15.4735 10.1085 16.4836 9.17418 18.1003C8.1991 19.7871 8.13862 21.7305 8.07959 23.6091C8.04315 24.7935 8.00745 25.9121 7.74729 26.8872C7.48057 27.8885 6.94639 28.8912 6.38088 29.953C5.50565 31.5975 4.59981 33.2989 4.59981 35.2095C4.59981 37.1201 5.50492 38.8208 6.38088 40.4659C6.94639 41.5277 7.47984 42.5311 7.74729 43.5317C8.00745 44.5068 8.04243 45.6247 8.07959 46.8091C8.13789 48.6875 8.19838 50.6304 9.17345 52.3179C9.50212 52.8867 9.91824 53.3768 10.3839 53.8202L1.14841 69.2592C0.958216 69.5772 0.950192 69.9732 1.12801 70.2977C1.30582 70.6229 1.64251 70.8293 2.01344 70.841L17.17 71.2975L23.9744 83.9786C24.1523 84.3097 24.494 84.5204 24.8701 84.5292C24.8781 84.5299 24.8861 84.5299 24.8949 84.5299C25.2614 84.5299 25.6025 84.3374 25.7912 84.0216L35.112 68.4403C36.2714 68.9887 37.4791 69.4168 38.785 69.4168C40.2053 69.4168 41.5092 68.9151 42.7604 68.2974L52.2088 84.0917C52.3975 84.4075 52.7386 84.6 53.1051 84.6C53.1132 84.6 53.1212 84.6 53.1299 84.5993C53.506 84.5905 53.8485 84.3805 54.0256 84.0487L60.83 71.3676L75.9866 70.9111C76.3568 70.9001 76.6935 70.693 76.872 70.3678C77.0498 70.0425 77.0418 69.6473 76.8516 69.3293L67.428 53.5766C67.7939 53.1967 68.1255 52.7847 68.3958 52.3179C69.3709 50.6282 69.4321 48.6855 69.4904 46.8069L69.4902 46.8069ZM24.9451 81.365L18.7267 69.7749C18.5503 69.446 18.2115 69.236 17.8384 69.2243L3.85657 68.8036L12.0427 55.119C12.4529 55.3947 12.872 55.6579 13.2888 55.9183C14.328 56.5673 15.3097 57.1799 16.069 57.9398C16.8283 58.6996 17.4412 59.6819 18.0898 60.7226C19.0656 62.2868 20.0742 63.9036 21.6891 64.8385C23.3754 65.8143 25.3168 65.8748 27.1941 65.9338C28.3776 65.971 29.4948 66.006 30.4692 66.2664C31.3794 66.51 32.2933 66.976 33.2493 67.4835L24.9451 81.365ZM60.1641 69.2951C59.791 69.3061 59.4521 69.5161 59.2757 69.8457L53.0565 81.4358L44.6169 67.3277C45.4666 66.8821 46.2857 66.4839 47.1019 66.2659C48.0762 66.0055 49.1934 65.9705 50.377 65.9333C52.2541 65.875 54.1957 65.8137 55.882 64.838C57.4977 63.9031 58.5062 62.2856 59.4821 60.7205C60.1307 59.6806 60.7428 58.6983 61.5021 57.9392C62.2615 57.1794 63.2424 56.5668 64.2815 55.9178C64.7924 55.5991 65.3069 55.2738 65.8032 54.9282L74.1452 68.8729L60.1641 69.2951ZM67.4013 46.743C67.3481 48.4378 67.2986 50.0385 66.5866 51.2702C65.9132 52.4356 64.5833 53.2661 63.1753 54.1449C62.0822 54.8275 60.9519 55.5334 60.0241 56.4617C59.0964 57.3901 58.391 58.5211 57.7089 59.6151C56.8308 61.024 56.0007 62.3549 54.8362 63.0287C53.6054 63.7412 52.0057 63.7915 50.3121 63.844C49.0623 63.8834 47.771 63.9235 46.5634 64.2458C45.3311 64.5747 44.1745 65.1917 43.0559 65.7882C41.5736 66.5787 40.1729 67.3248 38.7853 67.3248C37.3985 67.3248 35.9979 66.5787 34.5147 65.7882C33.3968 65.1917 32.2396 64.5755 31.0072 64.2458C29.8004 63.9235 28.5082 63.8834 27.2585 63.844C25.5648 63.7915 23.9653 63.7412 22.7336 63.0287C21.5698 62.3556 20.7397 61.0248 19.861 59.6158C19.1789 58.5219 18.4734 57.3909 17.545 56.4617C16.6173 55.5326 15.487 54.8274 14.3938 54.1449C12.9858 53.2661 11.6558 52.4355 10.9825 51.2702C10.2713 50.0385 10.221 48.4378 10.1685 46.743C10.1292 45.4924 10.0891 44.2001 9.76698 42.9917C9.43759 41.7585 8.82179 40.6004 8.22567 39.4817C7.4357 37.9984 6.68945 36.5968 6.68945 35.2082C6.68945 33.8196 7.43497 32.4189 8.22494 30.9347C8.82106 29.8153 9.43686 28.658 9.76625 27.4247C10.0884 26.2171 10.1284 24.924 10.1678 23.6734C10.221 21.9786 10.2705 20.378 10.9825 19.1462C11.6559 17.9808 12.9858 17.1503 14.3938 16.2715C15.4869 15.589 16.6172 14.883 17.545 13.9547C18.4727 13.0264 19.1781 11.8953 19.8602 10.8013C20.7383 9.39241 21.5684 8.06148 22.7329 7.38772C23.9637 6.67596 25.5634 6.62565 27.257 6.57241C28.506 6.53303 29.7981 6.49292 31.0057 6.17059C32.238 5.8417 33.3946 5.22475 34.5132 4.62822C35.997 3.83916 37.3969 3.0924 38.7846 3.0924C40.1722 3.0924 41.572 3.83843 43.0544 4.62895C44.173 5.22548 45.3295 5.8417 46.5626 6.17132C47.7695 6.49366 49.0616 6.53376 50.3114 6.57314C52.005 6.62564 53.6046 6.67596 54.8362 7.38845C56.0001 8.06228 56.8302 9.39312 57.7089 10.8021C58.391 11.896 59.0964 13.027 60.0241 13.9554C60.9518 14.8838 62.0821 15.5897 63.1753 16.2723C64.5833 17.151 65.9133 17.9816 66.5866 19.1469C67.2978 20.3786 67.3481 21.9794 67.4006 23.6741C67.4399 24.9248 67.48 26.2178 67.8021 27.4255C68.1315 28.6587 68.7473 29.8168 69.3434 30.9354C70.1334 32.4187 70.8797 33.8203 70.8797 35.2089C70.8797 36.5975 70.1341 37.9983 69.3442 39.4825C68.7481 40.6019 68.1322 41.7591 67.8029 42.9924C67.4807 44.1993 67.4407 45.4924 67.4013 46.743V46.743Z" fill="#0D92D2" stroke="#0D92D2" stroke-width="2"/>
<path d="M38.7861 10.2422C32.1216 10.2422 25.8565 12.839 21.1451 17.5544C16.4322 22.2699 13.8379 28.5393 13.8379 35.2076C13.8379 41.8768 16.4329 48.1462 21.1451 52.8608C25.8572 57.5762 32.1223 60.1731 38.7861 60.1731C45.4499 60.1731 51.7149 57.5762 56.4271 52.8608C61.14 48.1454 63.7343 41.876 63.7343 35.2076C63.7343 28.5393 61.1392 22.2691 56.4271 17.5544C51.7149 12.839 45.4499 10.2422 38.7861 10.2422ZM54.9499 51.383C46.0373 60.3032 31.5365 60.3017 22.6227 51.383C18.3047 47.0621 15.9276 41.3186 15.9276 35.208C15.9276 29.0982 18.3055 23.354 22.6227 19.033C27.079 14.5736 32.9331 12.3443 38.7865 12.3443C44.6398 12.3443 50.4931 14.5736 54.9495 19.033C59.2675 23.354 61.6446 29.0982 61.6446 35.208C61.6454 41.3184 59.2675 47.0621 54.9503 51.383H54.9499Z" fill="#0D92D2" stroke="#0D92D2" stroke-width="2"/>
</svg>
