<svg width="24" height="24" viewBox="0 0 24 24" fill="none" xmlns="http://www.w3.org/2000/svg">
<g clip-path="url(#clip0_548_420)">
<path d="M23.3164 3.2813C22.9634 2.92762 22.3905 2.92701 22.0375 3.2798L11.1862 14.1024L7.27112 9.85022C6.93282 9.483 6.36086 9.45919 5.99303 9.79744C5.62548 10.1357 5.60195 10.708 5.94025 11.0755L10.493 16.02C10.6598 16.2012 10.8931 16.3064 11.1392 16.3115C11.1458 16.3118 11.1521 16.3118 11.1585 16.3118C11.3976 16.3118 11.6276 16.2168 11.797 16.048L23.3147 4.56056C23.6686 4.20783 23.6692 3.63497 23.3164 3.2813Z" fill="#0D92D2"/>
<path d="M23.0955 11.0955C22.5959 11.0955 22.191 11.5004 22.191 12C22.191 17.6195 17.6195 22.191 12 22.191C6.38081 22.191 1.80905 17.6195 1.80905 12C1.80905 6.38081 6.38081 1.80905 12 1.80905C12.4996 1.80905 12.9045 1.40414 12.9045 0.904547C12.9045 0.404906 12.4996 0 12 0C5.38312 0 0 5.38312 0 12C0 18.6166 5.38312 24 12 24C18.6166 24 24 18.6166 24 12C24 11.5004 23.5951 11.0955 23.0955 11.0955Z" fill="#0D92D2"/>
</g>
<defs>
<clipPath id="clip0_548_420">
<rect width="24" height="24" rx="12" fill="white"/>
</clipPath>
</defs>
</svg>
